<?xml version="1.0" encoding="UTF-8"?>
<svg width="128px" height="40px" viewBox="0 0 128 40" version="1.1" xmlns="http://www.w3.org/2000/svg" xmlns:xlink="http://www.w3.org/1999/xlink">
    <!-- Generator: Sketch 55.2 (78181) - https://sketchapp.com -->
    <title>icon-cable-provider</title>
    <desc>Created with Sketch.</desc>
    <g id="Page-1" stroke="none" stroke-width="1" fill="none" fill-rule="evenodd">
        <g id="mvpd-dark-bg" transform="translate(-20.000000, -18.000000)">
            <g id="icon-cable-provider" transform="translate(20.000000, 18.000000)">
                <rect id="rectangle" fill="#050505" x="0" y="0" width="128" height="40" opacity="0"></rect>
                <path d="M54.8502829,22.9147525 L54.8502829,26.5658333 L58.4309439,26.5658333 L58.4309439,22.9147525 L54.8502829,22.9147525 Z M52.1221602,22.9147525 L48.4562454,22.9147525 L48.4562454,26.5658333 L52.1221602,26.5658333 L52.1221602,22.9147525 Z M75.7374722,28.3489192 C75.7374722,30.3018229 74.0323956,32 72.0715574,32 L46.6659149,32 C44.7050767,32 43,30.3018229 43,28.3489192 L43,21.1316665 C43,19.1787628 44.7050767,17.4805857 46.6659149,17.4805857 L72.0715574,17.4805857 C74.0323956,17.4805857 75.7374722,19.1787628 75.7374722,21.1316665 L75.7374722,28.3489192 Z M78.1867297,20.9474158 C78.18587,19.1453699 77.3415563,17.5831969 76.1961686,16.4413585 C75.0507808,15.2995201 73.5440356,14.5179194 71.7363883,14.5170624 L71.7354141,12.4747439 C74.0251007,12.4758294 76.1946785,13.3178125 77.7620512,14.8803282 C79.3294239,16.442844 80.2343077,18.6657956 80.2353966,20.9483869 L78.1867297,20.9474158 Z M78.6939575,13.2295036 C76.7648834,11.3064073 74.1131517,10.2239229 71.1605752,10.0423186 L71.1596009,8 C74.7748954,8.00171396 77.9690647,9.38479641 80.2598401,11.6684733 C82.5506156,13.9521501 83.9982808,17.1965182 84,20.8006098 L81.9513331,20.7996386 C81.7691643,17.8562114 80.6230315,15.1525999 78.6939575,13.2295036 Z" id="Shape" fill="#FFFFFF" fill-rule="nonzero"></path>
            </g>
        </g>
    </g>
</svg>